<svg width="19" height="24" viewBox="0 0 19 24" fill="none" xmlns="http://www.w3.org/2000/svg">
<path d="M7.85696 19.9325C7.19709 19.9359 6.54829 19.7653 5.9776 19.4382C5.40691 19.1112 4.93501 18.6396 4.61072 18.0723C4.25859 17.4968 4.07243 16.8374 4.07233 16.1651C4.07703 16.066 4.06047 15.9669 4.02372 15.8746C3.98696 15.7823 3.93085 15.6988 3.85907 15.6294C3.7873 15.56 3.70149 15.5065 3.60725 15.4722C3.51301 15.4378 3.4125 15.4235 3.31228 15.4302C3.2139 15.4301 3.1165 15.4497 3.026 15.4878C2.93549 15.5259 2.85375 15.5816 2.78568 15.6517C2.71761 15.7219 2.66461 15.8049 2.62993 15.8958C2.59524 15.9867 2.57955 16.0835 2.58382 16.1805C2.56731 16.4408 2.56731 16.7019 2.58382 16.9622C2.77309 18.1813 3.39089 19.2959 4.32894 20.1105C5.26699 20.9252 6.46549 21.3879 7.71445 21.4178C7.85752 21.4425 8.00481 21.4245 8.13743 21.366C8.27005 21.3075 8.38194 21.2111 8.4587 21.0893C8.5323 20.9777 8.57144 20.8474 8.57144 20.7142C8.57144 20.5809 8.5323 20.4506 8.4587 20.339C8.40094 20.2269 8.31555 20.131 8.21041 20.06C8.10526 19.989 7.98372 19.945 7.85696 19.9325Z" fill="#8C99B2"/>
<path d="M14.937 13.615C14.6498 13.6606 14.3605 13.6907 14.0702 13.7051C13.8693 13.6958 13.6694 13.6707 13.4724 13.63C13.577 13.975 13.7115 14.305 13.8012 14.65C14.1021 15.604 14.15 16.6203 13.9404 17.5986C13.7307 18.5769 13.2707 19.4835 12.6056 20.229C11.8724 21.1914 10.8662 21.9086 9.7191 22.2861C8.57205 22.6635 7.338 22.6836 6.17934 22.3437C5.02156 22.0775 3.96584 21.4793 3.14067 20.6219C2.31549 19.7645 1.75646 18.6848 1.53153 17.5144C1.30843 16.4654 1.38085 15.3749 1.74074 14.3649C2.25435 12.7689 2.88884 11.2146 3.63871 9.71568C4.86418 7.15109 6.22416 4.64649 7.65886 2.21687L7.73361 2.09696L8.1371 2.78679L8.70501 3.80671C8.97798 3.37694 9.30441 2.98379 9.67641 2.63685L8.39118 0.432243C8.33538 0.3038 8.24342 0.194487 8.12661 0.117718C8.00981 0.0409492 7.87323 0 7.73361 0C7.59398 0 7.45737 0.0409492 7.34056 0.117718C7.22375 0.194487 7.13184 0.3038 7.07603 0.432243C5.40222 3.2368 3.81808 6.10133 2.41327 9.04086C1.63362 10.6047 0.969257 12.2237 0.425587 13.8851C0.0317233 15.0153 -0.0911423 16.2227 0.0669263 17.4095C0.38873 19.3075 1.38857 21.023 2.87943 22.2348C4.37029 23.4466 6.25001 24.0718 8.16697 23.9934C9.29407 23.9336 10.3941 23.6246 11.3885 23.0889C12.3829 22.5531 13.2472 21.8037 13.9196 20.894C14.592 19.9842 15.0559 18.9366 15.2783 17.8261C15.5007 16.7157 15.476 15.5698 15.206 14.47C15.1313 14.155 15.0266 13.885 14.937 13.615Z" fill="#8C99B2"/>
<path d="M17.454 3.92999C16.6782 3.16438 15.6609 2.69137 14.5755 2.59133C13.4901 2.49129 12.4035 2.77051 11.5008 3.38141C10.598 3.9923 9.93485 4.89712 9.62414 5.94193C9.31343 6.98673 9.37437 8.1069 9.79661 9.11183C10.2188 10.1168 10.9763 10.9443 11.94 11.4536C12.9037 11.963 14.0142 12.1227 15.0823 11.9054C16.1505 11.6882 17.1104 11.1075 17.7986 10.2623C18.4868 9.41699 18.8609 8.35931 18.8571 7.26928C18.8565 6.64743 18.7321 6.0319 18.4912 5.4586C18.2503 4.88529 17.8978 4.36566 17.454 3.92999ZM14.1148 10.805C13.5329 10.8059 12.9599 10.6632 12.4464 10.3895C11.9329 10.1159 11.495 9.71967 11.1713 9.23617C10.8476 8.75267 10.6483 8.19683 10.5909 7.61782C10.5336 7.03882 10.62 6.45452 10.8425 5.91692C11.0651 5.37932 11.4168 4.90502 11.8666 4.53595C12.3164 4.16688 12.8504 3.91446 13.4211 3.8012C13.9918 3.68793 14.5816 3.71735 15.1383 3.88666C15.6949 4.05597 16.2012 4.35993 16.6122 4.77179C17.1056 5.26625 17.4415 5.89579 17.5775 6.58094C17.7135 7.2661 17.6435 7.97624 17.3763 8.62165C17.1091 9.26706 16.6568 9.81888 16.0763 10.2075C15.4958 10.596 14.8133 10.804 14.1148 10.805Z" fill="#8C99B2"/>
<path d="M16.4728 6.63099H14.8433V4.94045C14.8433 4.76677 14.7744 4.60037 14.6516 4.47756C14.5287 4.35476 14.3622 4.28572 14.1885 4.28572C14.0134 4.28567 13.8453 4.35406 13.72 4.47645C13.5948 4.59883 13.5225 4.76539 13.5185 4.94045V6.63099H11.7977C11.624 6.63099 11.4575 6.69984 11.3346 6.82265C11.2118 6.94545 11.1429 7.11204 11.1429 7.28572C11.1429 7.45939 11.2118 7.62598 11.3346 7.74879C11.4575 7.87159 11.624 7.94063 11.7977 7.94063H13.4728V9.63099C13.4768 9.80605 13.5491 9.9726 13.6744 10.095C13.7996 10.2174 13.9678 10.2858 14.1429 10.2857C14.3165 10.2857 14.4831 10.2169 14.6059 10.0941C14.7287 9.97125 14.7977 9.80466 14.7977 9.63099V7.94063H16.488C16.6617 7.94063 16.8283 7.87159 16.9511 7.74879C17.0739 7.62598 17.1429 7.45939 17.1429 7.28572C17.1429 7.11204 17.0739 6.94545 16.9511 6.82265C16.8283 6.69984 16.6617 6.63099 16.488 6.63099H16.4728Z" fill="#8C99B2"/>
</svg>
