<svg width="24" height="23" viewBox="0 0 24 23" fill="none" xmlns="http://www.w3.org/2000/svg">
<path d="M12 0C10.1186 0 8.57194 1.54664 8.57194 3.42806C8.57194 4.05743 8.75941 4.63324 9.05401 5.14209H4.28686C3.88514 5.14209 3.53698 5.4233 3.44994 5.81163L0.0218746 21.2379C-0.0383839 21.4923 0.0285696 21.7601 0.18926 21.961C0.34995 22.1619 0.597681 22.2824 0.858803 22.2824H23.1412C23.4023 22.2824 23.65 22.1619 23.8107 21.961C23.9714 21.7601 24.0384 21.4923 23.9781 21.2379L20.5501 5.81163C20.463 5.4233 20.1149 5.14209 19.7131 5.14209H14.946C15.2406 4.63324 15.4281 4.05743 15.4281 3.42806C15.4281 1.54664 13.8814 0 12 0ZM12 1.71403C12.9574 1.71403 13.714 2.47061 13.714 3.42806C13.714 4.38551 12.9574 5.14209 12 5.14209C11.0426 5.14209 10.286 4.38551 10.286 3.42806C10.286 2.47061 11.0426 1.71403 12 1.71403ZM4.9698 6.85612H19.0235L22.0699 20.5684H1.93007L4.9698 6.85612Z" fill="#8C99B2"/>
<path opacity="0.3" d="M3.71849 12.5L1.92297 20.5946H22.0781L20.2773 12.5H3.71849Z" fill="#8C99B2"/>
</svg>
