<svg width="20" height="20" viewBox="0 0 20 20" fill="none" xmlns="http://www.w3.org/2000/svg">
<path d="M9.23077 0V9.23077H10.7692V0H9.23077ZM7.69231 0.276443C3.28726 1.32812 0 5.28245 0 10C0 15.5168 4.48317 20 10 20C15.5168 20 20 15.5168 20 10C20 5.28245 16.7127 1.32812 12.3077 0.276443V1.86899C15.8534 2.87861 18.4615 6.13582 18.4615 10C18.4615 14.6695 14.6635 18.4615 10 18.4615C5.33654 18.4615 1.53846 14.6635 1.53846 10C1.53846 6.13582 4.14664 2.8726 7.69231 1.86298V0.276443Z" fill="#8C99B2"/>
</svg>
