<svg width="24" height="20" viewBox="0 0 24 20" fill="none" xmlns="http://www.w3.org/2000/svg">
<path d="M6.6705 7.3973V4.68373C6.69101 4.56402 6.69101 4.44167 6.6705 4.32195C6.6177 4.07215 6.65771 3.81161 6.78292 3.58943C6.90812 3.36724 7.10985 3.19882 7.35008 3.116C8.49437 2.44441 9.75666 2.00078 11.0679 1.80946C12.2471 1.62856 13.4264 1.56829 14.6057 1.46779H14.9055V0.58339C14.8967 0.508148 14.9044 0.431861 14.9278 0.359867C14.9513 0.287873 14.99 0.221846 15.0413 0.1664C15.0927 0.110954 15.1554 0.0674679 15.2251 0.0388123C15.2949 0.0101568 15.3699 -0.00289271 15.4452 0.000536082C15.5179 0.00304005 15.5893 0.0202535 15.6552 0.051203C15.721 0.0821526 15.78 0.12619 15.8285 0.180631C15.877 0.235071 15.9141 0.298747 15.9376 0.367964C15.961 0.43718 15.9703 0.510477 15.9649 0.58339V1.46779L19.063 1.76934V1.02565C19.0514 0.947948 19.0567 0.868601 19.0786 0.793173C19.1005 0.717746 19.1384 0.648038 19.1898 0.588788C19.2411 0.529538 19.3046 0.482191 19.3759 0.450037C19.4471 0.417883 19.5245 0.401692 19.6026 0.402559C19.9025 0.402559 20.1224 0.643754 20.1224 1.02565V2.03065C20.5221 2.19145 20.9219 2.29189 21.3016 2.47279C21.8103 2.74761 22.304 3.04957 22.7807 3.37731C22.8878 3.45303 22.9723 3.5566 23.0251 3.67702C23.078 3.79744 23.0971 3.93008 23.0806 4.06064C23.0806 8.88463 23.0806 13.7086 23.0806 18.5326V18.9346H23.3604C23.7401 18.9346 24 19.1558 24 19.4573C24 19.7588 23.7601 20 23.3604 20H0.414287C0.309361 19.979 0.213953 19.9247 0.141992 19.8451C0.0700306 19.7655 0.0253524 19.6648 0.0145667 19.5577C-0.0127253 19.4538 -0.0014205 19.3433 0.0464077 19.2471C0.0942358 19.1509 0.175319 19.0756 0.274419 19.0351C0.454309 19.0351 0.474309 18.8341 0.474309 18.6532V9.72884C0.458275 9.56821 0.489478 9.40644 0.564099 9.26351C0.638719 9.12058 0.753455 9.00285 0.894037 8.92491C1.88579 8.32795 2.98709 7.93827 4.13206 7.7792C4.95156 7.538 5.79103 7.4777 6.6705 7.3973ZM14.8655 2.51303C13.7862 2.51303 12.7068 2.67375 11.6675 2.81445C10.3948 2.97873 9.16227 3.37375 8.02972 3.98028C7.92842 4.02236 7.84292 4.09559 7.78548 4.18945C7.72804 4.28331 7.70161 4.39301 7.70991 4.5029C7.70991 9.17949 7.70991 13.8695 7.70991 18.5729V18.9346H14.8455L14.8655 2.51303ZM22.0012 18.8743V4.32195C22.0067 4.25661 21.9989 4.19081 21.9783 4.12861C21.9577 4.0664 21.9247 4.00911 21.8813 3.96016C21.3567 3.57249 20.7577 3.29877 20.1224 3.15624V3.77933H20.3822C20.5132 3.78431 20.6374 3.83877 20.7301 3.93195C20.8227 4.02513 20.877 4.15015 20.8819 4.28183C20.884 4.41521 20.839 4.54495 20.7548 4.64803C20.6706 4.75111 20.5527 4.82076 20.4222 4.84457H15.9649V7.49777H19.043V6.05064C19.044 5.96967 19.0629 5.88993 19.0985 5.8173C19.1341 5.74467 19.1854 5.68093 19.2487 5.63083C19.3119 5.58072 19.3855 5.54544 19.4641 5.52765C19.5426 5.50986 19.6241 5.51002 19.7026 5.52802C19.826 5.55674 19.9347 5.62975 20.0083 5.73339C20.0819 5.83702 20.1153 5.96407 20.1023 6.09075V7.49777H20.4222C20.5256 7.50154 20.6245 7.54188 20.7013 7.61174C20.7781 7.68161 20.8278 7.77651 20.8419 7.87968C20.8584 8.06506 20.8089 8.25032 20.702 8.4023C20.5667 8.51249 20.3962 8.56965 20.2223 8.56313H15.9649V11.2162H19.043V9.97003C19.0429 9.82418 19.0991 9.68403 19.1998 9.57904C19.3005 9.47406 19.4378 9.4125 19.5827 9.40729C19.7207 9.41715 19.8502 9.47809 19.9461 9.57831C20.0421 9.67853 20.0977 9.81097 20.1023 9.95003C20.1023 10.1711 20.1023 10.3721 20.1023 10.5731V11.2363H20.3822C20.5117 11.2457 20.6334 11.3017 20.7252 11.394C20.817 11.4863 20.8726 11.6086 20.8819 11.7388C20.8849 11.8694 20.8427 11.997 20.7625 12.0996C20.6822 12.2023 20.569 12.2737 20.4422 12.3017H15.9649V14.9147H19.043V13.8694C19.0332 13.7692 19.0332 13.6683 19.043 13.568C19.0972 13.4616 19.1848 13.3762 19.2922 13.325C19.3997 13.2738 19.5209 13.2596 19.6371 13.2848C19.7533 13.3101 19.858 13.3732 19.9349 13.4643C20.0118 13.5555 20.0566 13.6697 20.0624 13.7891C20.0624 14.171 20.0624 14.5529 20.0624 14.9348H20.3822C20.4997 14.9478 20.6092 15.0006 20.6928 15.0847C20.7764 15.1687 20.829 15.2789 20.8419 15.397C20.8612 15.5136 20.8373 15.6334 20.7747 15.7334C20.712 15.8335 20.6151 15.9069 20.5021 15.9398C20.3824 15.9506 20.262 15.9506 20.1424 15.9398H15.9249V18.9346H19.003V17.3468C18.9975 17.2749 19.0068 17.2026 19.0305 17.1344C19.0541 17.0663 19.0915 17.0038 19.1403 16.9509C19.1892 16.898 19.2483 16.856 19.3141 16.8272C19.3799 16.7985 19.451 16.7837 19.5227 16.7839C19.5971 16.7837 19.6707 16.799 19.7389 16.8287C19.8071 16.8585 19.8685 16.9021 19.9192 16.9568C19.9698 17.0115 20.0087 17.0763 20.0334 17.1468C20.058 17.2174 20.0679 17.2922 20.0624 17.3668C20.0624 17.5678 20.0624 17.7689 20.0624 17.9699V18.9346L22.0012 18.8743ZM6.63054 18.8743V12.2212H5.21142C4.02231 12.3122 2.86177 12.633 1.79345 13.166C1.71668 13.1993 1.65227 13.256 1.60924 13.3282C1.56621 13.4003 1.54675 13.4842 1.55361 13.568C1.55361 15.2162 1.55361 16.8643 1.55361 18.5125C1.55361 18.5125 1.55361 18.6934 1.55361 18.7939L6.63054 18.8743ZM1.55361 12.1811C3.16115 11.505 4.88814 11.1632 6.63054 11.1761V8.50277C5.87101 8.50277 5.13142 8.62336 4.41186 8.74396C3.49515 8.86238 2.60774 9.14845 1.79345 9.58812C1.69352 9.58812 1.57362 9.72892 1.57362 9.80932C1.55363 10.5731 1.55361 11.357 1.55361 12.1811ZM19.043 3.83957V3.17624C19.043 2.99534 19.043 2.91505 18.8232 2.91505C18.6033 2.91505 18.2235 2.79444 17.9237 2.77434C17.2841 2.77434 16.6245 2.65368 15.9249 2.59338V3.83957H19.043Z" fill="#8C99B2"/>
</svg>
