<svg width="17" height="17" viewBox="0 0 17 17" fill="none" xmlns="http://www.w3.org/2000/svg">
<path d="M10.8457 0.5C7.74512 0.5 5.2207 3.02441 5.2207 6.125C5.2207 7.44824 5.69922 8.6543 6.4707 9.61621L0.25 15.8369L1.12891 16.7256L7.35449 10.5C8.31641 11.2715 9.52246 11.75 10.8457 11.75C13.9463 11.75 16.4707 9.22559 16.4707 6.125C16.4707 3.02441 13.9463 0.5 10.8457 0.5ZM10.8457 1.75C13.2676 1.75 15.2207 3.70312 15.2207 6.125C15.2207 8.54688 13.2676 10.5 10.8457 10.5C8.42383 10.5 6.4707 8.54688 6.4707 6.125C6.4707 3.70312 8.42383 1.75 10.8457 1.75Z" fill="white"/>
</svg>
