<svg width="21" height="20" viewBox="0 0 21 20" fill="none" xmlns="http://www.w3.org/2000/svg">
<path fill-rule="evenodd" clip-rule="evenodd" d="M7.92005 1.02373L7.68383 2.4298C7.21391 2.57531 6.75832 2.76358 6.32276 2.99222L5.1979 2.15983C4.95815 1.9913 4.66676 1.91248 4.37474 1.93715C4.08272 1.96183 3.80868 2.08844 3.60061 2.29482L2.35203 3.5434C2.1172 3.77531 1.98374 4.09076 1.98082 4.42079C1.98001 4.67993 2.06286 4.93241 2.21705 5.14069L3.04944 6.26555C2.79196 6.72574 2.58455 7.2122 2.43077 7.71661L1.03595 7.95282C0.746891 8.00304 0.484749 8.15345 0.295515 8.37765C0.106281 8.60185 0.00203997 8.88553 0.00108346 9.17891V10.9337C-0.0115413 11.2366 0.0865133 11.5338 0.276942 11.7698C0.46737 12.0058 0.737157 12.1644 1.03595 12.216L2.46451 12.4635C2.6131 12.934 2.80515 13.3896 3.03819 13.8246L2.2058 14.9494C2.0597 15.1611 1.98125 15.4121 1.98082 15.6693C1.98018 15.832 2.01164 15.9933 2.07341 16.1439C2.13517 16.2944 2.22603 16.4313 2.34078 16.5467L3.58936 17.7953C3.79744 18.0017 4.07147 18.1283 4.36349 18.153C4.65551 18.1776 4.9469 18.0988 5.18666 17.9303L6.31151 17.0979C6.74995 17.3258 7.20957 17.5104 7.68383 17.6491L7.96504 18.9651C8.01526 19.2542 8.16566 19.5163 8.38987 19.7056C8.61407 19.8948 8.89775 19.999 9.19113 20H10.9459C11.2393 19.999 11.523 19.8948 11.7472 19.7056C11.9714 19.5163 12.1218 19.2542 12.172 18.9651L12.4195 17.5366C12.89 17.388 13.3456 17.1959 13.7805 16.9629L14.9054 17.7953C15.1451 17.9638 15.4365 18.0426 15.7286 18.018C16.0206 17.9933 16.2946 17.8667 16.5027 17.6603L17.74 16.4117C17.9748 16.1798 18.1083 15.8644 18.1112 15.5343C18.112 15.2752 18.0292 15.0227 17.875 14.8144L17.0426 13.6896C17.2666 13.2663 17.4475 12.8217 17.5825 12.3622L18.9886 12.126C19.2786 12.0779 19.5421 11.9281 19.7317 11.7034C19.9213 11.4788 20.0248 11.1939 20.0235 10.8999V9.13392C20.0244 8.84124 19.9205 8.55789 19.7307 8.33509C19.5409 8.11228 19.2777 7.96473 18.9886 7.91908L17.605 7.71661C17.4624 7.24567 17.274 6.78981 17.0426 6.35553L17.875 5.23068C18.0211 5.019 18.0995 4.76798 18.1 4.51077C18.1019 4.34786 18.071 4.18624 18.0091 4.03551C17.9473 3.88478 17.8558 3.74803 17.74 3.63339L16.4914 2.30606C16.2834 2.09969 16.0093 1.97308 15.7173 1.9484C15.4253 1.92372 15.1339 2.00255 14.8941 2.17108L13.7693 3.00347C13.3325 2.76918 12.8726 2.5807 12.397 2.44105L12.1607 1.03498C12.1151 0.745879 11.9675 0.482642 11.7447 0.292847C11.5219 0.103052 11.2386 -0.000780827 10.9459 0.000115398H9.14614C8.85318 -0.00390256 8.56846 0.0971206 8.34355 0.28489C8.11864 0.47266 7.9684 0.734761 7.92005 1.02373ZM10.9122 1.11372C10.9382 1.11621 10.9625 1.12768 10.981 1.14615C10.9994 1.16462 11.0109 1.18895 11.0134 1.21496L11.3059 2.96973C11.3256 3.0764 11.3752 3.1753 11.4488 3.25494C11.5225 3.33458 11.6172 3.3917 11.7221 3.41967C12.3389 3.57821 12.9299 3.82444 13.4768 4.15082C13.5696 4.20865 13.6768 4.23931 13.7862 4.23931C13.8955 4.23931 14.0027 4.20865 14.0955 4.15082L15.5578 3.11596C15.5662 3.10638 15.5766 3.09871 15.5883 3.09346C15.5999 3.08821 15.6125 3.08549 15.6253 3.08549C15.6381 3.08549 15.6507 3.08821 15.6623 3.09346C15.674 3.09871 15.6843 3.10638 15.6928 3.11596L16.9414 4.34205C16.9483 4.35402 16.9519 4.3676 16.9519 4.38142C16.9519 4.39524 16.9483 4.40882 16.9414 4.42079C16.9474 4.43905 16.9474 4.45876 16.9414 4.47703L15.9065 5.93934C15.8484 6.02996 15.8175 6.13537 15.8175 6.24305C15.8175 6.35072 15.8484 6.45613 15.9065 6.54676C16.2309 7.09473 16.477 7.68537 16.6377 8.30153C16.663 8.40765 16.7193 8.50384 16.7994 8.57793C16.8795 8.65203 16.9798 8.70068 17.0876 8.71772L18.8424 9.02143C18.8692 9.02143 18.895 9.0321 18.914 9.05109C18.9329 9.07007 18.9436 9.09582 18.9436 9.12267V10.8887C18.9416 10.916 18.9305 10.9419 18.9122 10.9622C18.8939 10.9826 18.8693 10.9963 18.8424 11.0012L17.0876 11.2936C16.9798 11.3107 16.8795 11.3593 16.7994 11.4334C16.7193 11.5075 16.663 11.6037 16.6377 11.7098C16.4796 12.3091 16.2412 12.8842 15.929 13.4196C15.8841 13.5105 15.861 13.6107 15.8615 13.7121C15.8621 13.8285 15.8973 13.942 15.9627 14.0383L17.0089 15.5006C17.0132 15.5191 17.0132 15.5383 17.0089 15.5568C17.0183 15.5861 17.0183 15.6176 17.0089 15.6468L15.7603 16.8954C15.7385 16.9095 15.7131 16.9169 15.6872 16.9169C15.6612 16.9169 15.6358 16.9095 15.614 16.8954L14.0955 15.883C14.0027 15.8252 13.8955 15.7945 13.7862 15.7945C13.6768 15.7945 13.5696 15.8252 13.4768 15.883C12.9338 16.2093 12.3466 16.4555 11.7333 16.6142C11.6276 16.6442 11.5325 16.7034 11.4589 16.785C11.3853 16.8665 11.3362 16.9672 11.3171 17.0754L11.0134 18.8414C11.0081 18.8672 10.994 18.8903 10.9734 18.9068C10.9529 18.9232 10.9272 18.9319 10.9009 18.9314H9.19113C9.16482 18.9319 9.13915 18.9232 9.1186 18.9068C9.09804 18.8903 9.08391 18.8672 9.07865 18.8414L8.78619 17.0979C8.76978 16.9886 8.72155 16.8866 8.64754 16.8046C8.57352 16.7226 8.47699 16.6642 8.36999 16.6367C7.75209 16.4811 7.15805 16.2427 6.60397 15.928C6.51441 15.8671 6.40859 15.8345 6.30026 15.8345C6.19193 15.8345 6.08611 15.8671 5.99655 15.928L4.53424 16.9741C4.51244 16.9882 4.48706 16.9957 4.46113 16.9957C4.43519 16.9957 4.40981 16.9882 4.38801 16.9741L3.13942 15.7256C3.13346 15.7133 3.13036 15.6998 3.13036 15.6862C3.13036 15.6725 3.13346 15.6591 3.13942 15.6468C3.13317 15.6248 3.13317 15.6014 3.13942 15.5793L4.17429 14.1395C4.23212 14.0467 4.26278 13.9395 4.26278 13.8302C4.26278 13.7208 4.23212 13.6137 4.17429 13.5208C3.84509 12.974 3.59513 12.3832 3.43189 11.7661C3.40391 11.6613 3.3468 11.5665 3.26716 11.4929C3.18752 11.4192 3.08862 11.3696 2.98195 11.3499L1.22717 11.0912C1.20032 11.0912 1.17457 11.0805 1.15559 11.0615C1.1366 11.0425 1.12594 11.0168 1.12594 10.9899V9.16767C1.12798 9.14036 1.13903 9.1145 1.15735 9.09414C1.17568 9.07379 1.20023 9.06008 1.22717 9.05518L2.9707 8.76272C3.07904 8.74713 3.18009 8.69898 3.26045 8.62465C3.3408 8.55033 3.39667 8.45333 3.42064 8.34652C3.58288 7.71489 3.83277 7.10908 4.16304 6.54676C4.22118 6.45613 4.25209 6.35072 4.25209 6.24305C4.25209 6.13537 4.22118 6.02996 4.16304 5.93934L3.11693 4.48828C3.11205 4.46605 3.11205 4.44302 3.11693 4.42079C3.11146 4.39482 3.11146 4.36801 3.11693 4.34205L4.36551 3.09346C4.38731 3.07941 4.4127 3.07194 4.43863 3.07194C4.46456 3.07194 4.48994 3.07941 4.51174 3.09346L5.96281 4.12833C6.05464 4.1888 6.16218 4.22103 6.27214 4.22103C6.3821 4.22103 6.48964 4.1888 6.58147 4.12833C7.12612 3.7974 7.71776 3.55088 8.33624 3.39717C8.44106 3.3692 8.5358 3.31208 8.60947 3.23244C8.68313 3.1528 8.73271 3.05391 8.75244 2.94723L9.0449 1.18121C9.05016 1.15542 9.0643 1.13229 9.08485 1.11585C9.1054 1.09941 9.13107 1.09069 9.15739 1.09122L10.9122 1.11372Z" fill="#8C99B2"/>
<path fill-rule="evenodd" clip-rule="evenodd" d="M5.70406 10.0227C5.70406 10.8797 5.95833 11.7174 6.43469 12.4298C6.91105 13.1422 7.58808 13.6973 8.38006 14.0247C9.17205 14.3522 10.0434 14.4373 10.8838 14.2693C11.7241 14.1013 12.4958 13.6877 13.101 13.0809C13.7062 12.4741 14.1177 11.7014 14.2836 10.8606C14.4494 10.0198 14.362 9.14869 14.0325 8.35756C13.703 7.56643 13.1462 6.89085 12.4325 6.41635C11.7189 5.94184 10.8805 5.68974 10.0235 5.69197C9.4553 5.69197 8.8927 5.80407 8.36791 6.02184C7.84312 6.23962 7.36645 6.55879 6.9652 6.96108C6.56396 7.36337 6.24603 7.84087 6.02962 8.36622C5.81321 8.89158 5.70258 9.45447 5.70406 10.0227ZM13.2181 10.0227C13.2181 10.6545 13.0307 11.2721 12.6797 11.7975C12.3287 12.3228 11.8297 12.7323 11.246 12.9741C10.6623 13.2159 10.0199 13.2791 9.40026 13.1559C8.78057 13.0326 8.21135 12.7283 7.76458 12.2816C7.31781 11.8348 7.01355 11.2656 6.89029 10.6459C6.76703 10.0262 6.83029 9.38387 7.07208 8.80014C7.31387 8.21641 7.72333 7.71748 8.24868 7.36646C8.77402 7.01543 9.39166 6.82807 10.0235 6.82807C10.8707 6.82807 11.6833 7.16464 12.2824 7.76374C12.8815 8.36284 13.2181 9.1754 13.2181 10.0227Z" fill="#8C99B2"/>
</svg>
